<svg width="14" height="14" viewBox="0 0 14 14" fill="none" xmlns="http://www.w3.org/2000/svg">
<path d="M1.2002 4.99995V11.9332C1.2002 12.3066 1.2002 12.4931 1.27286 12.6357C1.33677 12.7612 1.43868 12.8634 1.56412 12.9273C1.70659 12.9999 1.89319 12.9999 2.26582 12.9999H9.20017M3.86683 8.20004V3.13344C3.86683 2.38671 3.86683 2.01307 4.01215 1.72786C4.13998 1.47698 4.34381 1.27315 4.59469 1.14532C4.8799 1 5.25354 1 6.00027 1H11.0669C11.8136 1 12.1868 1 12.472 1.14532C12.7229 1.27315 12.927 1.47698 13.0549 1.72786C13.2002 2.01307 13.2002 2.38644 13.2002 3.13316L13.2002 8.19978C13.2002 8.94651 13.2002 9.31988 13.0549 9.60509C12.927 9.85597 12.7229 10.0602 12.472 10.188C12.187 10.3332 11.8144 10.3332 11.0691 10.3332H5.99808C5.25281 10.3332 4.87962 10.3332 4.59469 10.188C4.34381 10.0602 4.13998 9.85603 4.01215 9.60515C3.86683 9.31994 3.86683 8.94677 3.86683 8.20004Z" stroke="#0A0A0A" stroke-opacity="0.6" stroke-width="0.999988" stroke-linecap="round" stroke-linejoin="round"/>
</svg>
