<svg width="12" height="12" viewBox="0 0 12 12" fill="none" xmlns="http://www.w3.org/2000/svg">
<path d="M11.1344 0.158611C11.3227 -0.0430566 11.6386 -0.053697 11.8405 0.134197C12.0423 0.322556 12.0532 0.639331 11.8649 0.841228L7.18228 5.86076L11.4137 10.3969L11.4752 10.4779C11.5963 10.6763 11.5658 10.9382 11.3893 11.1029C11.2125 11.2678 10.948 11.2809 10.7585 11.1459L10.6833 11.0785L6.49966 6.59318L2.31705 11.0785L2.24087 11.1459C2.05145 11.2806 1.78764 11.2675 1.61099 11.1029C1.43458 10.9383 1.4032 10.6762 1.52408 10.4779L1.58658 10.3969L5.81607 5.86076L1.13443 0.841228C0.946129 0.639331 0.957035 0.322556 1.15884 0.134197C1.36063 -0.0539412 1.67652 -0.0428528 1.8649 0.158611L6.49966 5.12736L11.1344 0.158611Z" fill="#7B8598"/>
</svg>
