<svg width="16" height="18" viewBox="0 0 16 18" fill="none" xmlns="http://www.w3.org/2000/svg">
<path d="M5.375 3.625L8 1M8 1L10.625 3.625M8 1V9.75M3.6252 7.125C2.8098 7.125 2.4021 7.125 2.08051 7.25821C1.65171 7.43582 1.31083 7.77671 1.13321 8.20551C1 8.5271 1 8.9346 1 9.75V13.95C1 14.9301 1 15.4198 1.19074 15.7941C1.35852 16.1234 1.62604 16.3917 1.95532 16.5594C2.3293 16.75 2.81912 16.75 3.7973 16.75H12.2031C13.1813 16.75 13.6704 16.75 14.0444 16.5594C14.3737 16.3917 14.6417 16.1234 14.8094 15.7941C15 15.4202 15 14.9309 15 13.9527V9.75C15 8.9346 14.9999 8.5271 14.8667 8.20551C14.6891 7.77671 14.3485 7.43582 13.9197 7.25821C13.5981 7.125 13.1904 7.125 12.375 7.125" stroke="#585858" stroke-width="1.2" stroke-linecap="round" stroke-linejoin="round"/>
</svg>
