<svg width="14" height="14" viewBox="0 0 14 14" fill="none" xmlns="http://www.w3.org/2000/svg">
<path d="M7.15944 3.76101L1 9.92044V13.0002L4.07972 13.0001L10.2391 6.84072M7.15944 3.76101L9.36808 1.55235L9.36941 1.55104C9.67344 1.24701 9.82572 1.09472 10.0013 1.03768C10.1559 0.987439 10.3225 0.987439 10.4771 1.03768C10.6525 1.09468 10.8047 1.24679 11.1083 1.55039L12.4478 2.88991C12.7527 3.19482 12.9052 3.34734 12.9623 3.52314C13.0126 3.67777 13.0126 3.84434 12.9623 3.99898C12.9052 4.17465 12.7529 4.32694 12.4485 4.63141L12.4478 4.63207L10.2391 6.84072M7.15944 3.76101L10.2391 6.84072" stroke="#585858" stroke-linecap="round" stroke-linejoin="round"/>
</svg>
